<svg width="40" height="40" viewBox="0 0 40 40" fill="none" xmlns="http://www.w3.org/2000/svg">
<path d="M25.9291 3.61679L26.0085 3.77698L39.3418 30.4429C39.7632 31.3168 39.9999 32.2974 39.9999 33.3336C39.9999 37.0158 37.0155 40.0002 33.3332 40.0002C30.8012 40.0002 28.5997 38.5895 27.4711 36.5114L27.4567 36.484C27.3954 36.3721 27.3398 36.2588 27.2864 36.1434L27.285 36.1398L14.1053 9.78268L14.0988 9.76969C14.0613 9.6997 14.0245 9.62826 13.9906 9.5561L13.9776 9.52868C13.5641 8.66134 13.3325 7.69154 13.3325 6.6669C13.3325 4.11035 14.7706 1.89077 16.8812 0.773044C16.9707 0.724698 17.0609 0.679239 17.1518 0.638109L17.1612 0.633058C18.0221 0.227531 18.9839 -0.000488016 19.9999 -0.000488016C22.5832 -0.00120959 24.8229 1.46865 25.9291 3.61679Z" fill="#00BABA"/>
<path d="M13.3333 33.3327C13.3333 37.0149 10.3482 39.9994 6.66667 39.9994C2.98445 39.9994 0 37.0149 0 33.3327C0 29.6505 2.98445 26.666 6.66667 26.666C10.3482 26.666 13.3333 29.6512 13.3333 33.3327Z" fill="#00BABA"/>
</svg>
